<?xml version="1.0" encoding="utf-8"?>
<!-- Generator: Adobe Illustrator 24.0.3, SVG Export Plug-In . SVG Version: 6.00 Build 0)  -->
<svg version="1.1" id="Layer_1" focusable="false" xmlns="http://www.w3.org/2000/svg" xmlns:xlink="http://www.w3.org/1999/xlink"
	 x="0px" y="0px" viewBox="0 0 448 512" style="enable-background:new 0 0 448 512;" xml:space="preserve">
<style type="text/css">
	.st0{fill:#333333;}
</style>
<path class="st0" d="M224,256c70.7,0,128-57.3,128-128S294.7,0,224,0S96,57.3,96,128S153.3,256,224,256z M104,424
	c0,13.3,10.7,24,24,24s24-10.7,24-24s-10.7-24-24-24S104,410.7,104,424z M320,288.6v49c36.5,7.4,64,39.8,64,78.4v41.7
	c0,7.6-5.4,14.2-12.9,15.7l-32.2,6.4c-4.3,0.9-8.5-1.9-9.4-6.3l-3.1-15.7c-0.9-4.3,1.9-8.6,6.3-9.4l19.3-3.9V416
	c0-62.8-96-65.1-96,1.9v26.7l19.3,3.9c4.3,0.9,7.1,5.1,6.3,9.4l-3.1,15.7c-0.9,4.3-5.1,7.1-9.4,6.3l-31.2-4.2
	c-7.9-1.1-13.8-7.8-13.8-15.9V416c0-38.6,27.5-70.9,64-78.4v-45.2c-2.2,0.7-4.4,1.1-6.6,1.9c-18,6.3-37.3,9.8-57.4,9.8
	s-39.4-3.5-57.4-9.8c-7.4-2.6-14.9-4.2-22.6-5.2v81.6c23.1,6.9,40,28.1,40,53.4c0,30.9-25.1,56-56,56s-56-25.1-56-56
	c0-25.3,16.9-46.5,40-53.4v-80.4C48.5,301,0,355.8,0,422.4v44.8C0,491.9,20.1,512,44.8,512h358.4c24.7,0,44.8-20.1,44.8-44.8v-44.8
	C448,350.4,391.2,292.1,320,288.6L320,288.6z"/>
</svg>
