<?xml version="1.0" encoding="utf-8"?>
<!-- Generator: Adobe Illustrator 23.0.6, SVG Export Plug-In . SVG Version: 6.00 Build 0)  -->
<svg version="1.1" xmlns="http://www.w3.org/2000/svg" xmlns:xlink="http://www.w3.org/1999/xlink" x="0px" y="0px"
	 viewBox="0 0 184.4 106.7" style="enable-background:new 0 0 184.4 106.7;" xml:space="preserve">
<style type="text/css">
	.st0{fill:#FFFFFF;}
	.st1{clip-path:url(#SVGID_2_);}
	.st2{fill:#F1F0F0;}
	.st3{fill:#F36B21;}
	.st4{fill:#F8961D;}
	.st5{fill:#FDF7B7;}
	.st6{fill:#FFC728;}
	.st7{fill:#A32E22;}
	.st8{stroke:#000000;stroke-width:0.5;stroke-miterlimit:10;}
	.st9{fill:none;stroke:#000000;stroke-miterlimit:10;}
	.st10{display:none;}
	.st11{display:inline;}
	.st12{fill:#E8E8E6;stroke:#000000;stroke-width:0.75;stroke-miterlimit:10;}
	.st13{fill:#B0B0AF;stroke:#000000;stroke-width:0.75;stroke-miterlimit:10;}
	.st14{fill:#72C8F1;stroke:#000000;stroke-miterlimit:10;}
	.st15{fill:#3499CC;stroke:#000000;stroke-miterlimit:10;}
	.st16{fill:#8AC652;stroke:#000000;stroke-miterlimit:10;}
	.st17{fill:#659A41;stroke:#000000;stroke-miterlimit:10;}
	.st18{fill:#F04A4A;stroke:#000000;stroke-width:0.75;stroke-miterlimit:10;}
	.st19{fill:#BC2F38;stroke:#000000;stroke-width:0.75;stroke-miterlimit:10;}
</style>
<g id="Vizifl_sticker">
	<rect y="0" class="st0" width="184.4" height="106.7"/>
	<g>
		<rect y="0" class="st0" width="184.4" height="106.7"/>
		<g>
			<defs>
				<rect id="SVGID_1_" y="0" width="184.4" height="106.7"/>
			</defs>
			<clipPath id="SVGID_2_">
				<use xlink:href="#SVGID_1_"  style="overflow:visible;"/>
			</clipPath>
			<g class="st1">
				
					<rect x="0" y="56" transform="matrix(-1 -1.377830e-06 1.377830e-06 -1 184.4238 125.3868)" class="st2" width="184.4" height="13.3"/>
				
					<rect x="41" y="56" transform="matrix(-1 -1.119227e-07 1.119227e-07 -1 102.4578 125.3867)" class="st3" width="20.5" height="13.3"/>
				
					<rect x="61.5" y="56" transform="matrix(-1 -1.119227e-07 1.119227e-07 -1 143.4409 125.3867)" class="st4" width="20.5" height="13.3"/>
				
					<rect x="163.9" y="56" transform="matrix(-1 -1.119227e-07 1.119227e-07 -1 348.3564 125.3868)" class="st5" width="20.5" height="13.3"/>
				
					<rect x="82.1" y="56" transform="matrix(-1 -1.119228e-07 1.119228e-07 -1 184.6414 125.3867)" class="st6" width="20.5" height="13.3"/>
				
					<rect x="0" y="56" transform="matrix(-1 -1.119227e-07 1.119227e-07 -1 20.4915 125.3867)" class="st6" width="20.5" height="13.3"/>
				
					<rect x="20.5" y="56" transform="matrix(-1 -1.119227e-07 1.119227e-07 -1 61.4747 125.3867)" class="st4" width="20.5" height="13.3"/>
			</g>
			<g class="st1">
				
					<rect x="0" y="0" transform="matrix(-1 -1.930436e-07 1.930436e-07 -1 184.4242 13.2934)" class="st2" width="184.4" height="13.3"/>
				
					<rect x="143.4" y="0" transform="matrix(-1 -1.119227e-07 1.119227e-07 -1 307.3733 13.2932)" class="st4" width="20.5" height="13.3"/>
				
					<rect x="163.9" y="0" transform="matrix(-1 -1.119227e-07 1.119227e-07 -1 348.3564 13.2932)" class="st3" width="20.5" height="13.3"/>
				
					<rect x="122.9" y="0" transform="matrix(-1 -1.119227e-07 1.119227e-07 -1 266.3902 13.2932)" class="st6" width="20.5" height="13.3"/>
				
					<rect x="0" y="0" transform="matrix(-1 -1.119227e-07 1.119227e-07 -1 20.4916 13.2932)" class="st5" width="20.5" height="13.3"/>
				
					<rect x="20.5" y="0" transform="matrix(-1 -1.119227e-07 1.119227e-07 -1 61.4747 13.2932)" class="st5" width="20.5" height="13.3"/>
				
					<rect x="102.5" y="0" transform="matrix(-1 -1.119227e-07 1.119227e-07 -1 225.4071 13.2932)" class="st5" width="20.5" height="13.3"/>
			</g>
			<g class="st1">
				
					<rect x="0" y="93.4" transform="matrix(-1 -2.372790e-06 2.372790e-06 -1 184.4235 200.1157)" class="st0" width="184.4" height="13.3"/>
				
					<rect x="-0.4" y="93.4" transform="matrix(-1 -1.087763e-07 1.087763e-07 -1 20.2864 200.1157)" class="st3" width="21.1" height="13.3"/>
				
					<rect x="61.7" y="93.4" transform="matrix(-1 -1.119227e-07 1.119227e-07 -1 143.8284 200.1158)" class="st5" width="20.5" height="13.3"/>
				
					<rect x="82.2" y="93.4" transform="matrix(-1 -1.119227e-07 1.119227e-07 -1 184.8116 200.1158)" class="st0" width="20.5" height="13.3"/>
				
					<rect x="41.2" y="93.4" transform="matrix(-1 -1.119227e-07 1.119227e-07 -1 102.8453 200.1158)" class="st6" width="20.5" height="13.3"/>
				
					<rect x="20.7" y="93.4" transform="matrix(-1 -1.119227e-07 1.119227e-07 -1 61.8622 200.1158)" class="st4" width="20.5" height="13.3"/>
			</g>
			<g class="st1">
				
					<rect x="0" y="37.4" transform="matrix(-1 -9.276927e-07 9.276927e-07 -1 184.424 88.0225)" class="st2" width="184.4" height="13.3"/>
				
					<rect x="41" y="37.4" transform="matrix(-1 -1.119227e-07 1.119227e-07 -1 102.4578 88.0222)" class="st4" width="20.5" height="13.3"/>
				
					<rect x="61.5" y="37.4" transform="matrix(-1 -1.119227e-07 1.119227e-07 -1 143.4409 88.0222)" class="st6" width="20.5" height="13.3"/>
				
					<rect x="163.9" y="37.4" transform="matrix(-1 -1.119228e-07 1.119228e-07 -1 348.3564 88.0222)" class="st6" width="20.5" height="13.3"/>
				
					<rect x="143.4" y="37.4" transform="matrix(-1 -1.119226e-07 1.119226e-07 -1 307.3733 88.0222)" class="st6" width="20.5" height="13.3"/>
				
					<rect x="0" y="37.4" transform="matrix(-1 -1.119227e-07 1.119227e-07 -1 20.4915 88.0222)" class="st6" width="20.5" height="13.3"/>
				
					<rect x="20.5" y="37.4" transform="matrix(-1 -1.119227e-07 1.119227e-07 -1 61.4747 88.0222)" class="st6" width="20.5" height="13.3"/>
			</g>
			<g class="st1">
				
					<rect x="0" y="74.7" transform="matrix(-1 -1.334484e-06 1.334484e-06 -1 184.4239 162.7513)" class="st0" width="184.4" height="13.3"/>
				<polygon class="st3" points="-0.3,74.7 20.7,74.7 21.7,88 -0.3,88 				"/>
				
					<rect x="61.7" y="74.7" transform="matrix(-1 -1.119226e-07 1.119226e-07 -1 143.8284 162.7513)" class="st5" width="20.5" height="13.3"/>
				
					<rect x="82.2" y="74.7" transform="matrix(-1 -1.119227e-07 1.119227e-07 -1 184.8116 162.7513)" class="st0" width="20.5" height="13.3"/>
				
					<rect x="41.2" y="74.7" transform="matrix(-1 -1.119227e-07 1.119227e-07 -1 102.8453 162.7513)" class="st3" width="20.5" height="13.3"/>
				
					<rect x="20.7" y="74.7" transform="matrix(-1 -1.119227e-07 1.119227e-07 -1 61.8622 162.7513)" class="st7" width="20.5" height="13.3"/>
			</g>
			<g class="st1">
				
					<rect x="0" y="18.7" transform="matrix(-1 -1.729438e-06 1.729438e-06 -1 184.4238 50.6578)" class="st2" width="184.4" height="13.3"/>
				
					<rect x="143.4" y="18.7" transform="matrix(-1 -1.119227e-07 1.119227e-07 -1 307.3733 50.6577)" class="st6" width="20.5" height="13.3"/>
				
					<rect x="163.9" y="18.7" transform="matrix(-1 -1.119227e-07 1.119227e-07 -1 348.3564 50.6577)" class="st4" width="20.5" height="13.3"/>
				
					<rect x="122.9" y="18.7" transform="matrix(-1 -1.119227e-07 1.119227e-07 -1 266.3902 50.6577)" class="st6" width="20.5" height="13.3"/>
				
					<rect x="0" y="18.7" transform="matrix(-1 -1.119227e-07 1.119227e-07 -1 20.4916 50.6577)" class="st6" width="20.5" height="13.3"/>
				
					<rect x="20.5" y="18.7" transform="matrix(-1 -1.119227e-07 1.119227e-07 -1 61.4747 50.6577)" class="st6" width="20.5" height="13.3"/>
			</g>
		</g>
		<g>
			<g>
				<path class="st8" d="M97.2,79.1h3.4l4.8,16.8h0.1l4.9-16.8h3.4l-7.1,22.1h-2.5L97.2,79.1z"/>
				<path class="st8" d="M116,79.1h3.1v3.1H116V79.1z M116,85.4h3.1v15.7H116V85.4z"/>
				<path class="st8" d="M122.3,98.6l7.6-10.4h-7.4v-2.8h11.2v2.5l-7.9,10.2h7.9v3h-11.3V98.6z"/>
				<path class="st8" d="M137.2,79.1h3.1v3.1h-3.1V79.1z M137.2,85.4h3.1v15.7h-3.1V85.4z"/>
				<path class="st8" d="M145,87.8h-1.5v-2.4h1.5v-2.1c0-1.5,0.4-2.6,1.2-3.3c0.8-0.7,1.8-1,2.9-1h2v3h-1.7c-0.9,0-1.4,0.4-1.3,1.3
					v2.1h3.1v2.4H148v13.3H145V87.8z"/>
				<path class="st8" d="M153.1,79.1h3.1v18c0,0.7,0.4,1.1,1.1,1.1h1.1v3H157c-1.1,0-2-0.3-2.8-0.9c-0.8-0.6-1.1-1.6-1.1-2.9V79.1z"
					/>
				<path class="st8" d="M161.1,85.4h3.1v9.4c0,1.1,0.3,1.9,0.9,2.5c0.6,0.6,1.3,0.9,2.2,0.9c0.9,0,1.6-0.3,2.2-0.9
					c0.6-0.6,0.9-1.4,0.9-2.5v-9.4h3.1v15.7h-3.1v-1.7h-0.1c-1,1.2-2.3,1.9-3.9,1.9c-1.3,0-2.4-0.5-3.4-1.4c-1.1-0.9-1.7-2.2-1.7-4
					V85.4z"/>
			</g>
		</g>
	</g>
	<rect x="0.6" y="-0.4" class="st9" width="184.4" height="106.7"/>
</g>
<g id="CRviz_sticker__x28_ref_x29_" class="st10">
	<g class="st11">
		<circle class="st12" cx="311.9" cy="52.9" r="88.6"/>
		<path class="st13" d="M390.8,93.4c-14.7,28.6-44.5,48.2-78.9,48.2c-34.4,0-64.2-19.6-78.9-48.2"/>
		<circle class="st14" cx="282.7" cy="44" r="39.4"/>
		<path class="st15" d="M317.8,62c-6.5,12.7-19.8,21.4-35.1,21.4c-15.3,0-28.6-8.7-35.1-21.4"/>
		<circle class="st16" cx="322.1" cy="-9.2" r="16"/>
		<path class="st17" d="M336.3-1.9c-2.7,5.2-8,8.7-14.2,8.7c-6.2,0-11.6-3.5-14.2-8.7"/>
		<circle class="st18" cx="356.2" cy="33.4" r="24.6"/>
		<path class="st19" d="M378.1,44.7C374,52.6,365.8,58,356.2,58c-9.5,0-17.8-5.4-21.9-13.4"/>
		<text transform="matrix(1 0 0 1 277.8309 125.2205)" class="st8" style="font-family:'DINAlternate-Bold'; font-size:29.7415px;">CRviz</text>
	</g>
</g>
</svg>
